<?xml version="1.0" standalone="no"?><!DOCTYPE svg PUBLIC "-//W3C//DTD SVG 1.1//EN" "http://www.w3.org/Graphics/SVG/1.1/DTD/svg11.dtd"><svg t="1686301905049" class="icon" viewBox="0 0 1024 1024" version="1.1" xmlns="http://www.w3.org/2000/svg" p-id="6243" xmlns:xlink="http://www.w3.org/1999/xlink" width="32" height="32"><path d="M512.72 373m-66.46 0a66.46 66.46 0 1 0 132.92 0 66.46 66.46 0 1 0-132.92 0Z" p-id="6244" fill="#525C73"></path><path d="M634.47 464.35l43.95 33.86c27.28-36.32 43.45-81.47 43.45-130.4 0-42.09-11.98-81.38-32.7-114.67l-44.24 34.08c13.65 23.73 21.46 51.25 21.46 80.59 0.01 36.18-11.86 69.59-31.92 96.54zM372.09 460.9c-18.54-26.33-29.43-58.43-29.43-93.08 0-30.14 8.25-58.35 22.59-82.51l-43.82-34.64c-21.67 33.81-34.24 74.01-34.24 117.15 0 47.65 15.34 91.7 41.34 127.52l43.56-34.44zM754.06 548.44l31.39 21.62c40.91-58.93 65.08-131.52 65.08-210.07 0-67.98-18.1-131.52-49.49-185.59l-31.89 21.97c26.3 47.96 41.41 103.89 41.41 163.62 0 70.37-20.96 135.46-56.5 188.45zM261.39 537.19c-31.14-50.84-49.28-111.73-49.28-177.19 0-58.66 14.56-113.66 40-161.04l-32.21-21.51c-30.32 53.41-47.76 115.83-47.76 182.55 0 73.47 21.14 141.75 57.36 198.5l31.89-21.31zM750.97 905.48l-63.29 0.13-221.15-491.25 48.39-22.26z" p-id="6245" fill="#525C73"></path><path d="M275.03 905.48l63.29 0.13 221.15-491.25-48.39-22.26z" p-id="6246" fill="#525C73"></path><path d="M417.25 627.69h191.5v56.35h-191.5z" p-id="6247" fill="#525C73"></path></svg>